<svg version="1" xmlns="http://www.w3.org/2000/svg" width="682.667" height="682.667" viewBox="0 0 512.000000 512.000000"><path d="M252.6 85.1c-3.8 1.1-6.3 3.5-7.5 7.3-.5 1.7-7.1 59.8-14.6 129.1s-14 126.8-14.4 127.8c-.4 1.2-5.6-15.5-14.5-47.5-7.6-27.1-14.5-50.6-15.3-52.1-3-5.9-13.2-7.3-17.9-2.5-1.3 1.3-10.2 17.4-20 35.8-9.7 18.4-17.7 33.6-17.9 33.8-.1.1-3-10.8-6.4-24.4-3.4-13.5-6.9-26-7.7-27.6-3-5.7-3.6-5.8-57.4-5.8-53 0-53.9.1-57.3 5.3-2.2 3.4-2.2 10 0 13.4 3.4 5.2 4.7 5.3 51.7 5.3h43.5l1 3.7c.6 2.1 4.7 18.6 9.2 36.8 7.1 28.5 8.6 33.4 10.9 35.7 3.8 3.7 9 4.5 13.7 2.1 3.5-1.8 5.2-4.7 22.3-37.1 10.1-19.3 18.7-34.8 19-34.4.4.4 8.6 29.3 18.4 64.2 9.8 34.9 18.4 64.9 19.1 66.7 1.7 4.1 5.5 6.5 10.4 6.7 5 .1 8.6-1.9 10.5-5.9 1-2.1 5.6-40.1 13.8-115.3 6.7-61.6 12.3-112 12.4-111.9.1.1 2.8 18.9 5.9 41.7 3.5 25.6 6.3 42.8 7.3 45 3.3 7 4 7.1 46.7 6.8 40.9-.3 40.8-.3 43.7-5.6 1.6-3.1 1.6-9.3 0-12.4-2.8-5.2-3.4-5.3-37.7-5.6l-32-.3-11.8-85.2c-6.5-46.9-12.4-86.3-13-87.6-2.4-4.9-8.7-7.6-14.1-6zM381.4 265.6c-8.5 4.2-8.4 16.8.3 20.9 2.8 1.3 6.9 1.6 24.2 1.3 23.8-.3 25.3-.8 28-8.5 1.3-3.6 1.2-4.3-.5-7.9-3.3-6.7-5.9-7.4-28.9-7.4-15.8 0-20.6.4-23.1 1.6zM457 265.8c-2.2 1-4.2 3.2-5.4 5.6-1.7 3.6-1.8 4.3-.5 7.9 2.7 7.7 4.2 8.2 27.7 8.5 11.4.2 22.2 0 24.1-.3 5.3-1 9.1-5.7 9.1-11.1 0-2.5-.7-5.6-1.7-7.1-3.1-4.7-6.4-5.3-29-5.3-17.8 0-21.3.3-24.3 1.8z"/></svg>